<svg width="515" height="525" viewBox="0 0 515 525" fill="none" xmlns="http://www.w3.org/2000/svg">
<path d="M100.187 397.963L142 331.841L48.3587 271.963L0 348.436L77.4531 397.963H100.187Z" fill="#F0F0F0"/>
<path fill-rule="evenodd" clip-rule="evenodd" d="M55 416.963H158V396.963H55V416.963ZM156.662 415.673H56.3377V398.253H156.662V415.673Z" fill="#3F3D56"/>
<path d="M146.5 413.963C150.09 413.963 153 411.053 153 407.463C153 403.873 150.09 400.963 146.5 400.963C142.91 400.963 140 403.873 140 407.463C140 411.053 142.91 413.963 146.5 413.963Z" fill="#222F65"/>
<path d="M126.5 413.963C130.09 413.963 133 411.053 133 407.463C133 403.873 130.09 400.963 126.5 400.963C122.91 400.963 120 403.873 120 407.463C120 411.053 122.91 413.963 126.5 413.963Z" fill="#222F65"/>
<path d="M108.5 413.963C112.09 413.963 115 411.053 115 407.463C115 403.873 112.09 400.963 108.5 400.963C104.91 400.963 102 403.873 102 407.463C102 411.053 104.91 413.963 108.5 413.963Z" fill="#222F65"/>
<path d="M89.5 413.963C93.0899 413.963 96 411.053 96 407.463C96 403.873 93.0899 400.963 89.5 400.963C85.9101 400.963 83 403.873 83 407.463C83 411.053 85.9101 413.963 89.5 413.963Z" fill="#222F65"/>
<path d="M70.5 413.963C74.0899 413.963 77 411.053 77 407.463C77 403.873 74.0899 400.963 70.5 400.963C66.9101 400.963 64 403.873 64 407.463C64 411.053 66.9101 413.963 70.5 413.963Z" fill="#222F65"/>
<path d="M282.462 185.904V134.829H308V109.963H183V234.963H289.855V222.741C289.855 218.14 291.683 213.728 294.936 210.474C298.19 207.221 302.602 205.393 307.203 205.393H308V185.904H282.462Z" fill="#F0F0F0"/>
<rect x="22.6495" y="10.5684" width="41" height="41" transform="rotate(-14 22.6495 10.5684)" fill="#F0F0F0"/>
<rect x="337" y="432.963" width="84" height="17" fill="#222F65"/>
<rect x="315" y="346.963" width="123" height="16" fill="#F0F0F0"/>
<path fill-rule="evenodd" clip-rule="evenodd" d="M306.035 524.963H458.965C468.921 524.952 476.989 516.887 477 506.936V222.989C476.989 213.038 468.921 204.974 458.965 204.963H306.035C296.079 204.974 288.011 213.038 288 222.989V506.936C288.011 516.887 296.079 524.952 306.035 524.963ZM289.345 222.989C289.356 213.781 296.822 206.318 306.035 206.307H458.965C468.178 206.318 475.644 213.781 475.655 222.989V506.936C475.644 516.145 468.178 523.608 458.965 523.618H306.035C296.822 523.608 289.356 516.145 289.345 506.936V222.989Z" fill="#3F3D56"/>
<path fill-rule="evenodd" clip-rule="evenodd" d="M361 214.963C361 217.172 362.791 218.963 365 218.963C367.208 218.961 368.998 217.171 369 214.963C369 212.754 367.209 210.963 365 210.963C362.791 210.963 361 212.754 361 214.963ZM362.333 214.963C362.333 213.49 363.527 212.296 365 212.296C366.472 212.298 367.665 213.491 367.667 214.963C367.667 216.436 366.473 217.63 365 217.63C363.527 217.63 362.333 216.436 362.333 214.963Z" fill="#3F3D56"/>
<rect x="375" y="213.963" width="30" height="1" fill="#3F3D56"/>
<path d="M466 223.963V277.963C436.177 277.962 412.001 253.786 412 223.963H466Z" fill="#222F65"/>
<path fill-rule="evenodd" clip-rule="evenodd" d="M300 506.963H466V223.963H300V506.963ZM464.656 505.619H301.344V225.307H464.656V505.619Z" fill="#3F3D56"/>
<path opacity="0.1" d="M426.5 274.963C436.717 274.963 445 266.68 445 256.463C445 246.246 436.717 237.963 426.5 237.963C416.283 237.963 408 246.246 408 256.463C408 266.68 416.283 274.963 426.5 274.963Z" fill="black"/>
<path d="M423.5 276.963C433.717 276.963 442 268.68 442 258.463C442 248.246 433.717 239.963 423.5 239.963C413.283 239.963 405 248.246 405 258.463C405 268.68 413.283 276.963 423.5 276.963Z" fill="#222F65"/>
<rect x="307" y="234.963" width="26" height="9" fill="#3F3D56"/>
<rect x="321" y="324.963" width="26" height="9" fill="#3F3D56"/>
<path fill-rule="evenodd" clip-rule="evenodd" d="M322 359.963H446V342.963H322V359.963ZM444.652 358.655H323.348V344.271H444.652V358.655Z" fill="#3F3D56"/>
<rect x="315" y="397.963" width="123" height="16" fill="#F0F0F0"/>
<rect x="321" y="374.963" width="26" height="9" fill="#3F3D56"/>
<path fill-rule="evenodd" clip-rule="evenodd" d="M322 410.963H446V393.963H322V410.963ZM444.652 409.655H323.348V395.271H444.652V409.655Z" fill="#3F3D56"/>
<path fill-rule="evenodd" clip-rule="evenodd" d="M341 445.963H426V427.963H341V445.963ZM424.651 444.677H342.349V429.249H424.651V444.677Z" fill="#3F3D56"/>
<path d="M441 353.463C441 356.204 439.28 358.651 436.7 359.579C434.121 360.507 431.237 359.716 429.491 357.603L429.484 357.597C427.783 355.533 427.52 352.639 428.82 350.302C430.12 347.965 432.719 346.664 435.368 347.022C438.018 347.38 440.178 349.324 440.812 351.922C440.811 351.924 440.812 351.926 440.813 351.927C440.815 351.928 440.816 351.929 440.818 351.929C440.938 352.431 440.999 352.946 441 353.463Z" fill="#222F65"/>
<path opacity="0.1" d="M441 353.088C441 355.988 439.235 358.575 436.589 359.557C433.943 360.538 430.985 359.702 429.193 357.467L429.187 357.46C429.064 356.929 429.001 356.384 429 355.838C429 352.938 430.765 350.35 433.411 349.369C436.057 348.388 439.015 349.224 440.807 351.459C440.807 351.461 440.807 351.462 440.809 351.464C440.81 351.465 440.812 351.466 440.813 351.466C440.936 351.997 440.999 352.542 441 353.088Z" fill="black"/>
<path d="M437.5 362.963C441.09 362.963 444 360.053 444 356.463C444 352.873 441.09 349.963 437.5 349.963C433.91 349.963 431 352.873 431 356.463C431 360.053 433.91 362.963 437.5 362.963Z" fill="#222F65"/>
<path d="M441 403.463C441 406.204 439.28 408.651 436.7 409.579C434.121 410.507 431.237 409.716 429.491 407.603L429.484 407.597C427.783 405.533 427.52 402.639 428.82 400.302C430.12 397.965 432.719 396.664 435.368 397.022C438.018 397.38 440.178 399.324 440.812 401.922C440.811 401.924 440.812 401.926 440.813 401.927C440.815 401.928 440.816 401.929 440.818 401.929C440.938 402.431 440.999 402.946 441 403.463Z" fill="#222F65"/>
<path opacity="0.1" d="M441 404.088C441 406.988 439.235 409.575 436.589 410.557C433.943 411.538 430.985 410.702 429.193 408.467L429.187 408.46C429.064 407.929 429.001 407.384 429 406.838C429 403.938 430.765 401.35 433.411 400.369C436.057 399.388 439.015 400.224 440.807 402.459C440.807 402.461 440.807 402.462 440.809 402.464C440.81 402.465 440.812 402.466 440.813 402.466C440.936 402.997 440.999 403.542 441 404.088Z" fill="black"/>
<path d="M437.5 413.963C441.09 413.963 444 411.053 444 407.463C444 403.873 441.09 400.963 437.5 400.963C433.91 400.963 431 403.873 431 407.463C431 411.053 433.91 413.963 437.5 413.963Z" fill="#222F65"/>
<rect x="290" y="141.963" width="35" height="35" fill="#F0F0F0"/>
<path fill-rule="evenodd" clip-rule="evenodd" d="M418 158.963C418 163.381 421.582 166.963 426 166.963C430.416 166.958 433.995 163.379 434 158.963C434 154.545 430.418 150.963 426 150.963C421.582 150.963 418 154.545 418 158.963ZM419.333 158.963C419.333 155.281 422.318 152.296 426 152.296C429.68 152.3 432.662 155.283 432.667 158.963C432.667 162.645 429.682 165.63 426 165.63C422.318 165.63 419.333 162.645 419.333 158.963Z" fill="#3F3D56"/>
<path fill-rule="evenodd" clip-rule="evenodd" d="M232 279.963H249V262.963H232V279.963ZM247.692 278.655H233.308V264.271H247.692V278.655Z" fill="#3F3D56"/>
<path fill-rule="evenodd" clip-rule="evenodd" d="M498 410.963H515V393.963H498V410.963ZM513.692 409.655H499.308V395.271H513.692V409.655Z" fill="#3F3D56"/>
<path d="M170 293.867L172.998 295.493L183.198 301.029L199.665 309.963L209.262 292.034C211.087 288.631 211.494 284.638 210.392 280.933C209.29 277.229 206.77 274.118 203.387 272.286C196.044 268.293 186.981 269.532 180.96 275.35L180.955 275.356C179.511 276.752 178.292 278.367 177.343 280.142L170 293.867Z" fill="#2F2E41"/>
<path d="M215 474.043L213.069 496.923L205.827 497.963L201 471.963L215 474.043Z" fill="#FFB8B8"/>
<path d="M203.352 498.581C203.352 498.581 212.927 493.449 214.943 497.555C214.943 497.555 213.431 509.871 219.479 511.411C225.527 512.95 228.047 523.727 219.479 524.753C210.912 525.78 205.368 522.701 202.344 522.701C199.32 522.701 202.344 511.924 202.344 511.924L203.352 498.581Z" fill="#2F2E41"/>
<path d="M154 474.043L155.931 496.923L163.173 497.963L168 471.963L154 474.043Z" fill="#FFB8B8"/>
<path d="M166.648 498.581C166.648 498.581 157.073 493.449 155.057 497.555C155.057 497.555 156.569 509.871 150.521 511.411C144.473 512.95 141.953 523.727 150.521 524.753C159.088 525.78 164.632 522.701 167.656 522.701C170.68 522.701 167.656 511.924 167.656 511.924L166.648 498.581Z" fill="#2F2E41"/>
<path d="M194.5 297.963C201.956 297.963 208 291.919 208 284.463C208 277.007 201.956 270.963 194.5 270.963C187.044 270.963 181 277.007 181 284.463C181 291.919 187.044 297.963 194.5 297.963Z" fill="#FFB8B8"/>
<path d="M154 309.763L164.495 326.457L176.988 325.445L197.477 326.963C197.477 326.963 199.411 323.047 200.991 319.238C201.855 317.336 202.52 315.347 202.974 313.304C203.474 309.763 196.478 306.222 196.478 306.222C196.478 306.222 196.203 306.171 195.743 306.06C195.134 305.913 194.194 305.67 193.165 305.316C190.841 304.517 188.047 303.161 187.483 301.163C186.483 297.622 193.979 292.563 193.979 292.563L184.984 283.963C184.984 283.963 176.993 295.199 167.288 297.758C166.725 297.909 166.155 298.027 165.579 298.112C165.549 298.117 165.524 298.123 165.494 298.128C154.999 299.645 154 309.763 154 309.763Z" fill="#FFB8B8"/>
<path d="M159.264 305.963L153.477 310.501C153.477 310.501 148.741 332.184 150.319 338.235C151.898 344.286 149.793 349.833 149.793 350.841C149.793 351.85 145.058 389.668 145.058 389.668C145.058 389.668 135.587 409.838 145.584 407.821C155.581 405.804 151.898 385.634 151.898 385.634L164 350.337V320.586L159.264 305.963Z" fill="#FFB8B8"/>
<path d="M199.046 309.963L203.137 312.963L205.183 354.958L220.525 390.955C220.525 390.955 231.776 408.453 224.616 408.953C217.456 409.453 212.854 390.955 212.854 390.955L199.046 356.458L197 322.962L199.046 309.963Z" fill="#FFB8B8"/>
<path d="M173.734 311.963C173.734 311.963 183.821 319.041 199.96 316.513C199.96 316.513 204.499 325.613 201.978 330.668C199.456 335.724 205.004 347.857 206.012 349.373C207.021 350.89 218.621 382.234 222.656 416.105C226.69 449.977 237.786 473.232 228.203 476.265C218.621 479.298 198.951 482.837 196.934 479.804C194.917 476.771 191.891 401.444 191.891 401.444L186.343 430.261C186.343 430.261 193.908 479.298 188.36 480.31C182.812 481.321 148.013 478.287 149.021 472.221C150.03 466.154 160.117 434.305 160.117 434.305C160.117 434.305 159.613 370.606 169.7 358.473C169.7 358.473 173.734 351.901 168.187 343.307C162.639 334.712 163.143 321.063 163.143 321.063C163.143 321.063 167.178 321.063 173.734 311.963Z" fill="#2F2E41"/>
<path d="M165 298.315L173.08 316.963L175 315.956L166.642 297.963L165 298.315Z" fill="#2F2E41"/>
<path d="M193 305.963L199.452 319.963L201 319.827L200.474 317.444L195.636 306.704C195.013 306.557 194.052 306.316 193 305.963Z" fill="#2F2E41"/>
<path d="M172.377 294.986C173.366 298.252 176.167 300.591 179.484 300.923C182.802 301.254 185.989 299.513 187.574 296.504C181.208 287.964 186.668 282.599 197.01 278.541C198.603 275.507 198.251 271.786 196.119 269.123C190.346 268.365 184.548 270.324 180.343 274.452L180.338 274.457L172.991 288.439C171.933 290.447 171.712 292.808 172.377 294.986Z" fill="#2F2E41"/>
<path d="M187.5 288.963C188.328 288.963 189 287.62 189 285.963C189 284.306 188.328 282.963 187.5 282.963C186.672 282.963 186 284.306 186 285.963C186 287.62 186.672 288.963 187.5 288.963Z" fill="#FFB8B8"/>
<path d="M193 281.084L208.212 287.963L211 281.822C210.52 279.577 209.514 277.478 208.065 275.695L197.595 270.963L193 281.084Z" fill="#2F2E41"/>
<path d="M229.5 415.963C233.09 415.963 236 413.053 236 409.463C236 405.873 233.09 402.963 229.5 402.963C225.91 402.963 223 405.873 223 409.463C223 413.053 225.91 415.963 229.5 415.963Z" fill="#222F65"/>
<path d="M13.5 455.963C15.9853 455.963 18 453.948 18 451.463C18 448.978 15.9853 446.963 13.5 446.963C11.0147 446.963 9 448.978 9 451.463C9 453.948 11.0147 455.963 13.5 455.963Z" fill="#FF6584"/>
<rect x="34" y="474.963" width="1" height="50" fill="#3F3D56"/>
<path d="M35 480.963C38.866 480.963 42 477.829 42 473.963C42 470.097 38.866 466.963 35 466.963C31.134 466.963 28 470.097 28 473.963C28 477.829 31.134 480.963 35 480.963Z" fill="#3F3D56"/>
<path d="M34 504.963C34 504.963 33.0233 483.69 13 486.163L34 504.963Z" fill="#3F3D56"/>
</svg>
