<svg width="536" height="380" viewBox="0 0 536 380" fill="none" xmlns="http://www.w3.org/2000/svg">
<path d="M536 227.768C536 293.983 496.004 317.103 446.667 317.103C397.329 317.103 357.333 293.983 357.333 227.768C357.333 161.554 446.667 77.3182 446.667 77.3182C446.667 77.3182 536 161.554 536 227.768Z" fill="#F2F2F2"/>
<path d="M443.644 307.196L444.553 251.727L482.4 183.103L444.696 243.025L445.105 218.084L471.188 168.436L445.213 211.483V211.484L445.948 166.625L473.879 127.099L446.064 159.572L446.523 77.3182L443.636 186.207L443.873 181.715L415.476 138.634L443.418 190.338L440.772 240.436L440.693 239.107L407.956 193.77L440.594 243.804L440.263 250.07L440.204 250.164L440.231 250.678L433.518 377.783H442.487L443.563 312.131L476.122 262.219L443.644 307.196Z" fill="#3F3D56"/>
<path d="M48.637 338.058C48.637 355.895 37.7492 362.123 24.3185 362.123C10.8878 362.123 0 355.895 0 338.058C0 320.22 24.3185 297.528 24.3185 297.528C24.3185 297.528 48.637 320.22 48.637 338.058Z" fill="#F2F2F2"/>
<path d="M23.4134 358.699L23.6555 343.703L33.7482 325.15L23.6937 341.35L23.8026 334.607L30.7585 321.184L23.8316 332.822L24.0276 320.694L31.4762 310.008L24.0587 318.788L24.1811 296.55L23.4113 325.988L23.4741 324.774L15.9014 313.127L23.3528 327.106L22.6474 340.65L22.6264 340.291L13.8963 328.033L22.5996 341.561L22.5115 343.254L22.496 343.28L22.5029 343.419L20.7126 377.783H23.1047L23.3914 360.033L32.0743 346.539L23.4134 358.699Z" fill="#3F3D56"/>
<path d="M2.97778 378.272H488.356" stroke="#3F3D56" stroke-width="2"/>
<path d="M489.348 362.353C489.348 374.515 482.016 378.762 472.97 378.762C472.761 378.762 472.552 378.759 472.343 378.755C471.924 378.746 471.509 378.726 471.098 378.699C462.935 378.129 456.593 373.664 456.593 362.353C456.593 350.648 471.763 335.878 472.903 334.784L472.905 334.782C472.948 334.74 472.97 334.719 472.97 334.719C472.97 334.719 489.348 350.191 489.348 362.353Z" fill="#111B47"/>
<path d="M472.188 376.908L478.25 368.653L472.173 377.814L472.157 378.762C471.732 378.753 471.312 378.733 470.897 378.705L471.551 366.536L471.546 366.441L471.557 366.424L471.618 365.274L465.526 356.091L471.637 364.412L471.652 364.656L472.145 355.461L466.93 345.972L472.209 353.847L472.723 334.784L472.725 334.719V334.782L472.639 349.815L477.832 343.855L472.618 351.11L472.481 359.342L477.329 351.441L472.46 360.554L472.384 365.13L479.422 354.134L472.357 366.728L472.188 376.908Z" fill="#3F3D56"/>
<rect x="310.682" y="86.1266" width="5.95556" height="45.9995" rx="2.29166" fill="#3F3D56"/>
<rect x="123.081" y="49.9143" width="2.97778" height="14.6807" rx="1.48889" fill="#3F3D56"/>
<rect x="123.081" y="77.3182" width="3.97037" height="26.4252" rx="1.6946" fill="#3F3D56"/>
<rect x="123.081" y="113.531" width="2.97778" height="26.4252" rx="1.48889" fill="#3F3D56"/>
<rect x="125.067" width="188.593" height="377.783" rx="35.694" fill="#3F3D56"/>
<rect x="200.504" y="11.7445" width="26.8" height="4.89356" rx="2.44678" fill="#E6E8EC"/>
<path d="M234.252 16.6381C235.896 16.6381 237.23 15.3236 237.23 13.702C237.23 12.0804 235.896 10.7659 234.252 10.7659C232.607 10.7659 231.274 12.0804 231.274 13.702C231.274 15.3236 232.607 16.6381 234.252 16.6381Z" fill="#E6E8EC"/>
<path d="M302.741 24.5555V353.233C302.739 361.387 296.014 367.997 287.72 367.996H151.999C143.705 367.997 136.979 361.387 136.978 353.233V24.5555C136.977 20.6386 138.56 16.882 141.377 14.1123C144.194 11.3426 148.015 9.78677 151.999 9.78711H172.308V12.3518C172.31 19.0671 177.847 24.5105 184.677 24.5124H253.699C260.53 24.5124 266.068 19.0679 266.068 12.3518V9.78711H287.72C291.704 9.78677 295.525 11.3426 298.342 14.1123C301.159 16.882 302.741 20.6386 302.741 24.5555Z" fill="white"/>
<rect x="136.978" y="86.1266" width="165.763" height="187.913" fill="#F2F2F2"/>
<path d="M148.889 299.486L148.025 298.723C144.959 295.966 142.934 294.176 142.934 291.947C142.919 291.09 143.258 290.263 143.875 289.656C144.492 289.048 145.334 288.71 146.209 288.72C147.244 288.726 148.224 289.176 148.889 289.952C149.554 289.176 150.534 288.726 151.569 288.72C152.444 288.71 153.286 289.048 153.903 289.656C154.52 290.263 154.859 291.09 154.844 291.947C154.844 294.176 152.819 295.966 149.753 298.723L148.889 299.486Z" fill="#FF6584"/>
<path d="M179.659 297.076L181.381 297.529C182.005 295.863 183.48 294.587 185.326 294.118C187.171 293.649 189.149 294.048 190.613 295.183L187.984 297.529H194.548V291.656L191.903 293.99C189.982 292.439 187.343 291.88 184.879 292.501C182.414 293.122 180.454 294.841 179.659 297.076L179.659 297.076Z" fill="#F2F2F2"/>
<path d="M147.4 72.4247C151.511 72.4247 154.844 69.1383 154.844 65.0844C154.844 61.0304 151.511 57.744 147.4 57.744C143.289 57.744 139.956 61.0304 139.956 65.0844C139.956 69.1383 143.289 72.4247 147.4 72.4247Z" fill="#111B47"/>
<rect x="160.8" y="60.6802" width="71.4667" height="8.80841" fill="#111B47"/>
<rect x="141.941" y="312.209" width="71.4667" height="8.80841" fill="#F2F2F2"/>
<rect x="142.933" y="330.805" width="149.881" height="8.80841" fill="#F2F2F2"/>
<path d="M172.711 299.486L170.881 296.269C171.786 294.087 170.953 291.568 168.928 290.363C166.903 289.157 164.304 289.632 162.831 291.476C161.359 293.321 161.463 295.972 163.075 297.695C164.687 299.417 167.316 299.686 169.24 298.324L172.711 299.486Z" fill="#F2F2F2"/>
<path d="M205.025 129.631H205.025C199.362 130.785 194.392 134.133 191.207 138.938C188.022 143.743 186.884 149.611 188.043 155.252L192.541 177.147L197.577 176.12L197.932 173.8L198.987 175.833L229.605 169.591L229.96 167.271L231.015 169.304L235.244 168.442L230.746 146.547C229.588 140.906 226.227 135.955 221.403 132.783C216.579 129.61 210.688 128.476 205.025 129.631Z" fill="#2F2E41"/>
<path d="M243.827 196.721L269.985 212.563L266.716 220.21L242.193 208.739L243.827 196.721Z" fill="#9F616A"/>
<path d="M210.337 214.963C210.337 214.963 157.219 214.963 148.457 228.431C139.695 241.899 146.814 260.754 174.195 265.064C201.575 269.374 284.812 271.529 291.383 255.367C297.954 239.205 293.026 230.047 293.026 230.047C293.026 230.047 264.55 210.653 210.337 214.963Z" fill="#111B47"/>
<path d="M256.69 228.025L285.867 238.806C285.867 238.806 297.978 230.181 291.923 220.479C285.867 210.777 258.342 154.72 258.342 154.72C258.342 154.72 250.634 143.94 260.544 138.011C270.453 132.082 274.306 141.784 274.306 141.784C274.306 141.784 273.756 143.94 277.609 142.323C281.463 140.706 288.62 146.096 284.766 154.72C280.913 163.344 278.16 165.5 286.418 164.961C289.4 164.767 292.023 162.674 294.157 160.08C298.248 155.108 296.422 151.103 296.112 144.725C295.582 133.799 294.715 126.676 291.923 122.379C288.069 116.45 282.564 111.599 268.251 114.294C253.937 116.989 233.018 130.465 237.973 149.869C242.927 169.273 253.937 190.834 253.937 190.834C253.937 190.834 261.645 221.018 256.69 228.025Z" fill="#111B47"/>
<path opacity="0.1" d="M257.081 227.821C252.355 229.107 246.419 229.734 240.028 229.928C228.879 230.269 216.328 229.296 206.305 228.194C195.478 227 187.6 225.66 187.6 225.66C191.26 222.289 196.884 220.954 203.493 220.468C211.7 219.863 221.427 220.554 230.821 220.257C234.284 220.137 237.75 220.395 241.155 221.024C251.518 222.975 257.081 227.821 257.081 227.821Z" fill="black"/>
<path d="M209.933 169.317C218.43 169.317 225.319 162.525 225.319 154.147C225.319 145.769 218.43 138.977 209.933 138.977C201.436 138.977 194.548 145.769 194.548 154.147C194.548 162.525 201.436 169.317 209.933 169.317Z" fill="#9F616A"/>
<path d="M207.703 166.49C207.703 166.49 210.405 176.821 207.703 177.364C205.002 177.908 198.519 180.627 198.519 180.627L206.623 183.889L221.75 198.026L234.717 204.551L241.2 202.376V190.414L231.475 175.189C231.475 175.189 224.992 177.364 223.371 170.296C221.75 163.227 218.509 160.509 218.509 160.509L207.703 166.49Z" fill="#9F616A"/>
<path d="M203.834 181.062H197.267C197.267 181.062 185.773 184.817 179.205 193.4C172.638 201.983 162.239 210.565 162.239 210.565C162.239 210.565 155.124 220.221 158.955 233.632C162.786 247.043 168.259 256.698 173.185 254.016C178.111 251.334 166.07 232.023 166.07 232.023L169.354 220.221C169.354 220.221 186.32 200.91 193.435 201.446C200.55 201.983 201.098 207.883 201.098 207.883L216.422 212.175L221.348 201.983L218.612 191.254L203.834 181.062Z" fill="#9F616A"/>
<path d="M242.962 215.549C241.933 217.284 241.179 219.162 240.726 221.119C240.047 224.011 239.671 226.963 239.605 229.929C228.515 230.266 216.032 229.304 206.064 228.213C205.182 225.904 204.214 223.247 203.267 220.569C200.715 213.331 198.342 205.943 198.342 204.858C198.342 202.72 209.769 206.462 212.49 205.927C215.211 205.392 216.299 196.839 212.49 192.563C208.681 188.286 197.526 181.07 197.526 181.07L201.335 180.001C201.335 180.001 209.769 186.148 227.182 196.305C244.595 206.462 237.521 190.425 237.521 190.425L227.454 175.189H231.807C231.807 175.189 240.242 189.355 244.595 195.77C248.948 202.185 247.315 208.6 242.962 215.549Z" fill="#3F3D56"/>
<path d="M192.926 139.859L220.635 134.268L224.115 151.034L196.406 156.625L192.926 139.859Z" fill="#2F2E41"/>
<path d="M280.407 137.02C285.067 137.02 288.844 133.295 288.844 128.701C288.844 124.106 285.067 120.382 280.407 120.382C275.748 120.382 271.97 124.106 271.97 128.701C271.97 133.295 275.748 137.02 280.407 137.02Z" fill="#3F3D56"/>
<path d="M280.407 133.105C282.874 133.105 284.874 131.133 284.874 128.701C284.874 126.268 282.874 124.296 280.407 124.296C277.941 124.296 275.941 126.268 275.941 128.701C275.941 131.133 277.941 133.105 280.407 133.105Z" fill="white"/>
<path d="M39.1748 221.189L38.6054 225.425C38.4127 226.858 38.2198 228.293 38.116 229.736C37.7708 234.534 38.4144 239.351 38.245 244.158C38.1146 247.859 37.5026 251.558 37.7982 255.25C38.0597 258.515 39.0245 261.686 39.9837 264.828L41.3548 269.319C41.3775 269.591 41.5306 269.838 41.7688 269.985C42.007 270.133 42.3031 270.165 42.5695 270.072L48.637 269.543C48.2484 267.826 47.8163 266.037 47.6075 264.292C47.4423 262.911 47.3431 261.525 47.2395 260.139C46.9166 255.819 46.551 251.502 46.1855 247.185L45.5433 239.602C45.2648 236.313 44.9829 233.004 44.1234 229.809C43.2668 226.575 41.5629 223.607 39.1748 221.189Z" fill="#111B47"/>
<path opacity="0.1" d="M39.1748 221.189L38.6054 225.425C38.4127 226.858 38.2198 228.293 38.116 229.736C37.7708 234.534 38.4144 239.351 38.245 244.158C38.1146 247.859 37.5026 251.558 37.7982 255.25C38.0597 258.515 39.0245 261.686 39.9837 264.828L41.3548 269.319C41.3775 269.591 41.5306 269.838 41.7688 269.985C42.007 270.133 42.3031 270.165 42.5695 270.072L48.637 269.543C48.2484 267.826 47.8163 266.037 47.6075 264.292C47.4423 262.911 47.3431 261.525 47.2395 260.139C46.9166 255.819 46.551 251.502 46.1855 247.185L45.5433 239.602C45.2648 236.313 44.9829 233.004 44.1234 229.809C43.2668 226.575 41.5629 223.607 39.1748 221.189Z" fill="black"/>
<path d="M50.47 367.447C50.1163 368.131 49.8085 368.836 49.5485 369.56C48.8589 371.557 48.7547 373.697 48.6566 375.805C48.6095 376.211 48.6477 376.623 48.7689 377.015C49.0637 377.772 49.9135 378.156 50.7078 378.367C54.0345 379.249 57.5422 378.419 60.9734 378.116C64.3411 377.819 67.7718 378.034 71.0704 377.301C71.5579 377.21 72.0291 377.049 72.4687 376.822C73.3049 376.286 73.9287 375.482 74.2355 374.546C74.3358 374.307 74.4033 374.055 74.4361 373.798C74.545 372.689 73.5653 371.726 72.4981 371.361C71.431 370.997 70.2707 371.057 69.1473 370.943C64.3962 370.462 60.5635 366.896 59.7987 362.245C59.7589 362.003 54.2439 362.146 53.6634 362.46C52.984 362.828 52.5727 363.746 52.19 364.366C51.5715 365.367 50.9982 366.395 50.47 367.447Z" fill="#3F3D56"/>
<path opacity="0.1" d="M50.47 367.447C50.1163 368.131 49.8085 368.836 49.5485 369.56C48.8589 371.557 48.7547 373.697 48.6566 375.805C48.6095 376.211 48.6477 376.623 48.7689 377.015C49.0637 377.772 49.9135 378.156 50.7078 378.367C54.0345 379.249 57.5422 378.419 60.9734 378.116C64.3411 377.819 67.7718 378.034 71.0704 377.301C71.5579 377.21 72.0291 377.049 72.4687 376.822C73.3049 376.286 73.9287 375.482 74.2355 374.546C74.3358 374.307 74.4033 374.055 74.4361 373.798C74.545 372.689 73.5653 371.726 72.4981 371.361C71.431 370.997 70.2707 371.057 69.1473 370.943C64.3962 370.462 60.5635 366.896 59.7987 362.245C59.7589 362.003 54.2439 362.146 53.6634 362.46C52.984 362.828 52.5727 363.746 52.19 364.366C51.5715 365.367 50.9982 366.395 50.47 367.447Z" fill="black"/>
<path d="M59.4033 367.447C59.0496 368.131 58.7418 368.836 58.4819 369.56C57.7922 371.557 57.688 373.697 57.5899 375.805C57.5428 376.211 57.5811 376.623 57.7023 377.015C57.9971 377.772 58.8468 378.156 59.6412 378.367C62.9678 379.249 66.4755 378.419 69.9067 378.116C73.2745 377.819 76.7052 378.034 80.0038 377.301C80.4913 377.21 80.9625 377.049 81.402 376.822C82.2382 376.286 82.8621 375.482 83.1688 374.546C83.2692 374.307 83.3367 374.055 83.3695 373.798C83.4784 372.689 82.4987 371.726 81.4315 371.361C80.3643 370.997 79.204 371.057 78.0806 370.943C73.3295 370.462 69.4969 366.896 68.7321 362.245C68.6923 362.003 63.1772 362.146 62.5968 362.46C61.9173 362.828 61.5061 363.746 61.1233 364.366C60.5049 365.367 59.9315 366.395 59.4033 367.447Z" fill="#3F3D56"/>
<path d="M82.3841 314.122C82.4538 324.933 79.2958 335.501 75.5919 345.663C74.1254 349.686 72.5694 353.674 70.9236 357.627C69.9493 359.97 68.8515 362.569 69.8955 364.882C66.891 363.743 63.8147 363.071 60.6427 363.596C61.8501 361.146 61.7366 358.294 61.7904 355.566C61.8952 351.863 62.2956 348.173 62.9878 344.533C64.0504 338.993 65.8732 333.626 68.4052 328.581C68.9185 327.518 69.2723 326.385 69.4552 325.219C69.784 322.626 69.6327 319.995 69.0089 317.457C67.8515 311.833 65.6544 306.472 62.5295 301.648C62.5196 301.755 62.5097 301.864 62.4977 301.972C62.3087 303.579 62.0367 305.176 61.6828 306.756C60.9735 310.105 60.1466 313.455 60.2702 316.822C60.4031 320.392 60.1809 323.967 59.6067 327.494C59.4243 328.88 59.062 330.236 58.5288 331.529C58.1821 332.303 57.7298 333.031 57.4568 333.832C57.1861 334.759 57.0446 335.718 57.0364 336.683C56.632 344.824 57.0305 355.242 58.7021 363.223C55.8851 363.093 53.0858 363.728 50.6029 365.059C48.5826 359.384 47.2955 351.323 46.3332 345.346C45.2434 338.285 45.4649 331.085 46.9867 324.104C47.46 321.775 47.6374 319.396 47.5147 317.022C47.2995 312.295 46.1319 307.671 44.9724 303.082C44.3826 300.753 43.7928 298.424 43.2031 296.094C42.3643 292.775 41.5241 289.455 40.6827 286.135C40.1248 283.927 39.5609 281.672 39.7363 279.401C39.8595 278.155 40.1221 276.928 40.5193 275.741C41.7744 271.701 43.651 267.879 46.0821 264.411C55.7633 264.953 65.562 264.05 75.2292 263.31C75.6993 263.218 76.1871 263.3 76.6 263.543C76.9282 263.876 77.1237 264.316 77.15 264.782C78.3613 271.612 79.5721 278.442 80.7821 285.272C81.3714 288.125 81.7173 291.021 81.8162 293.931C81.8341 296.832 81.3619 299.722 81.4715 302.62C81.6189 306.524 82.3601 310.216 82.3841 314.122Z" fill="#2F2E41"/>
<path opacity="0.1" d="M62.5333 302.599C62.3408 304.184 62.0636 305.758 61.703 307.316C59.5571 303.741 57.2447 300.256 55.2693 296.592C54.7597 295.647 54.2746 294.691 53.7873 293.736C53.3021 292.782 52.8169 291.828 52.3316 290.874C52.0596 290.338 51.7855 289.8 51.5398 289.25C51.1386 288.459 50.8308 287.627 50.6222 286.769C51.3409 286.642 53.1112 288.507 53.6431 288.994C54.7342 290.031 55.7644 291.125 56.729 292.272C57.896 293.544 58.9673 294.895 59.9347 296.314C61.1709 298.249 62.0501 300.375 62.5333 302.599Z" fill="black"/>
<path d="M71.4667 203.196C71.4667 203.196 65.9564 211.966 66.9768 213.802C67.9972 215.637 49.6296 212.17 49.6296 212.17C49.6296 212.17 59.6298 203.399 58.6094 199.728C57.5889 196.057 71.4667 203.196 71.4667 203.196Z" fill="#EFB7B9"/>
<path d="M66.0074 205.53C72.8598 205.53 78.4148 200.052 78.4148 193.296C78.4148 186.539 72.8598 181.062 66.0074 181.062C59.155 181.062 53.6 186.539 53.6 193.296C53.6 200.052 59.155 205.53 66.0074 205.53Z" fill="#EFB7B9"/>
<path d="M71.3311 211.611C70.0063 209.805 68.2078 208.383 66.126 207.497C64.9276 207.076 63.6886 206.777 62.4282 206.603L57.4902 205.752C56.28 205.544 54.9847 205.344 53.862 205.834C53.2881 206.118 52.7657 206.492 52.3154 206.941C50.5991 208.498 48.9359 210.211 46.784 211.11C46.1949 211.356 45.5788 211.536 44.9906 211.784C42.5829 212.8 40.7828 214.92 39.76 217.285C38.687 219.765 38.6559 222.454 38.7406 225.147C38.738 226.076 38.8312 227.003 39.019 227.914C39.2681 228.781 39.5812 229.629 39.9556 230.451C40.6375 232.208 41.2087 234.003 41.6657 235.829C42.945 240.626 44.0086 245.472 44.8564 250.367C44.9303 251.071 45.1415 251.754 45.4786 252.379C45.9551 253.002 46.5317 253.545 47.1858 253.986C47.7037 254.406 48.1825 254.871 48.6164 255.375C48.8281 255.59 48.9832 255.852 49.0684 256.138C49.2286 256.862 48.5758 257.482 48.0459 258.01C46.9452 259.11 46.1496 260.468 45.7345 261.953C45.4759 262.258 45.3447 262.647 45.3673 263.043C45.4733 263.317 45.5128 263.611 45.4826 263.903C45.381 264.169 45.2223 264.411 45.0172 264.612C44.5397 265.221 44.3527 266.002 44.5037 266.755C48.3402 268.388 52.4459 269.33 56.6236 269.535C57.6467 269.582 58.6737 269.582 59.6902 269.705C60.4151 269.792 61.1313 269.942 61.8568 270.025C62.9122 270.121 63.9731 270.148 65.0322 270.104C70.5411 269.997 76.2117 269.857 81.2704 267.717C81.7469 265.176 80.7203 262.586 80.0763 260.08C79.0521 256.094 78.7941 251.961 78.0321 247.919C77.5106 245.153 76.753 242.43 76.3187 239.65C75.8843 236.869 75.7825 233.986 76.5628 231.279C77.2542 228.88 77.463 226.438 78.1797 224.046C78.8964 221.654 79.3987 219.061 78.5896 216.698C77.5863 213.767 74.4817 211.449 71.3311 211.611Z" fill="#111B47"/>
<path d="M77.2609 187.42C77.8655 185.282 76.6765 183.057 75.254 181.321C73.7255 179.455 71.7506 177.771 69.339 177.303C67.3792 176.922 65.3485 177.382 63.3559 177.229C61.5897 177.093 59.8973 176.48 58.1402 176.26C56.5508 176.094 54.945 176.153 53.373 176.435C51.8787 176.646 50.4183 177.041 49.0273 177.61C43.7345 179.881 40.6332 185.488 39.9136 191.05C39.194 196.612 40.4559 202.215 41.7102 207.687L42.844 212.633C44.0242 217.782 45.2083 222.957 45.5241 228.222C45.8398 233.486 45.2507 238.891 43.0139 243.699C50.246 239.938 55.8494 233.796 58.811 226.383C59.6154 224.347 60.2108 222.234 61.1017 220.232C61.8682 218.51 62.8494 216.879 63.5288 215.122C64.295 213.138 64.6629 211.031 64.6128 208.913C64.5741 207.322 64.2991 205.737 64.347 204.146C64.395 202.555 64.813 200.894 65.9491 199.744C66.9591 198.721 68.3941 198.229 69.6955 197.585C71.7421 196.568 73.5301 195.123 74.9304 193.356C75.7498 192.322 75.7935 191.881 76.0019 190.688C76.2046 189.528 76.9426 188.545 77.2609 187.42Z" fill="#2F2E41"/>
<path d="M77.3164 277.872C77.4426 279.136 77.2099 280.432 77.4901 281.671C77.7006 282.603 78.1899 283.45 78.4775 284.361C78.7632 285.417 78.9102 286.505 78.9148 287.598C78.9563 288.515 78.885 289.63 78.0633 290.059C77.7024 290.248 77.2694 290.252 76.8938 290.41C76.5182 290.568 76.1959 291.018 76.411 291.36C76.5919 291.648 77.0024 291.652 77.3389 291.72C77.6753 291.788 78.0456 292.132 77.8503 292.411C77.7719 292.502 77.6674 292.568 77.5505 292.599C77.2065 292.701 76.8808 292.856 76.5852 293.057C76.2865 293.267 76.1329 293.625 76.188 293.983C76.2289 294.154 76.3474 294.297 76.5093 294.371C76.6712 294.445 76.8584 294.441 77.0169 294.36C76.8662 294.678 76.7838 295.023 76.7751 295.374C78.0899 295.931 79.57 295.202 80.8075 294.493C81.3441 294.199 81.8622 293.874 82.3589 293.518C84.3821 291.977 85.5016 289.548 85.3492 287.03C85.2919 286.406 85.1949 285.786 85.0588 285.174C84.8669 284.109 84.6137 283.057 84.3003 282.021C83.9465 280.928 83.4603 279.882 83.0433 278.812C82.1547 276.53 81.5827 274.141 80.7826 271.828C80.7594 271.605 80.6429 271.401 80.461 271.266C80.2792 271.13 80.0485 271.076 79.8245 271.116C78.9229 271.07 78.0192 271.152 77.1413 271.36C76.6108 271.512 75.7405 271.849 75.5027 272.397C75.2885 272.891 75.6476 273.333 75.8754 273.757C76.6215 275.023 77.1109 276.421 77.3164 277.872Z" fill="#EFB7B9"/>
<path opacity="0.1" d="M76.7416 217.274C76.9978 217.537 77.2124 217.839 77.3777 218.168C79.084 221.301 79.1057 225.052 79.1859 228.627C79.2762 232.652 79.4941 236.673 79.7121 240.692L80.364 252.714C80.4263 253.862 80.4887 255.012 80.6482 256.151C81.415 256.347 81.4467 257.348 81.3579 258.142C80.8089 263.048 79.443 268.098 80.8735 272.819C80.9282 273.062 81.0433 273.287 81.208 273.473C80.487 273.243 79.715 273.232 78.9881 273.442C78.2751 273.594 77.5895 273.858 76.8789 274.021C75.9748 274.229 74.9499 274.318 74.333 275.018C73.636 272.897 73.081 270.73 72.6717 268.534C72.3331 266.537 72.2409 264.462 71.4359 262.607C71.1108 261.858 70.6766 261.164 70.2803 260.45C68.1954 256.698 67.1747 252.454 66.1771 248.271C65.7292 246.288 65.6218 244.241 65.8596 242.221C66.0013 241.299 66.0845 240.369 66.1087 239.437C66.0452 238.453 65.9176 237.474 65.7268 236.508C65.3056 233.672 65.5029 230.777 66.3048 228.026C67.0519 225.471 67.7069 222.784 69.2693 220.638C70.8317 218.492 74.1053 217.31 76.7416 217.274Z" fill="black"/>
<path d="M76.7416 216.295C76.9978 216.559 77.2124 216.86 77.3777 217.19C79.084 220.323 79.1057 224.073 79.1859 227.649C79.2762 231.674 79.4941 235.694 79.7121 239.714L80.364 251.735C80.4263 252.884 80.4887 254.034 80.6482 255.173C81.415 255.368 81.4467 256.369 81.3579 257.163C80.8089 262.069 79.443 267.119 80.8735 271.84C80.9282 272.083 81.0433 272.308 81.208 272.494C80.487 272.264 79.715 272.254 78.9881 272.464C78.2751 272.616 77.5895 272.879 76.879 273.043C75.9748 273.251 74.9499 273.34 74.333 274.039C73.636 271.918 73.081 269.752 72.6717 267.555C72.3331 265.559 72.2409 263.483 71.4359 261.628C71.1108 260.879 70.6766 260.185 70.2803 259.472C68.1954 255.72 67.1747 251.476 66.1771 247.293C65.7292 245.309 65.6218 243.263 65.8596 241.242C66.0013 240.321 66.0845 239.391 66.1087 238.458C66.0452 237.474 65.9176 236.496 65.7268 235.529C65.3056 232.693 65.5029 229.798 66.3048 227.048C67.0519 224.493 67.7069 221.805 69.2693 219.66C70.8317 217.514 74.1053 216.332 76.7416 216.295Z" fill="#111B47"/>
<g opacity="0.1">
<path d="M75.1363 180.651C73.6126 178.772 71.6438 177.076 69.2399 176.604C67.2862 176.22 65.2619 176.683 63.2755 176.529C61.5149 176.393 59.8278 175.775 58.0762 175.554C56.4917 175.387 54.891 175.446 53.324 175.73C51.8343 175.942 50.3785 176.34 48.9919 176.913C48.2426 177.24 47.5275 177.637 46.8566 178.098C48.0928 177.641 49.3753 177.313 50.6824 177.121C52.2495 176.838 53.8502 176.778 55.4347 176.945C57.1863 177.167 58.8733 177.784 60.634 177.921C62.6203 178.075 64.6447 177.612 66.5983 177.995C69.0023 178.467 70.971 180.163 72.4947 182.042C73.9128 183.791 75.0982 186.032 74.4954 188.185C74.178 189.319 73.4424 190.309 73.2403 191.477C73.0326 192.678 72.9891 193.123 72.1722 194.164C71.1209 195.503 69.8491 196.662 68.409 197.592C68.8065 197.407 69.2068 197.227 69.5953 197.033C71.6355 196.008 73.4178 194.553 74.8137 192.773C75.6306 191.732 75.6741 191.287 75.8818 190.086C76.0839 188.918 76.8195 187.928 77.1369 186.794C77.7397 184.641 76.5544 182.4 75.1363 180.651Z" fill="black"/>
<path d="M65.8606 199.207C66.0737 198.991 66.3055 198.794 66.5537 198.618C65.3693 199.179 64.1234 199.673 63.2191 200.598C62.0865 201.757 61.6698 203.43 61.622 205.032C61.5742 206.635 61.8484 208.231 61.887 209.833C61.937 211.966 61.5702 214.089 60.8064 216.088C60.1292 217.856 59.151 219.5 58.3868 221.234C57.4988 223.251 56.9052 225.378 56.1034 227.429C53.5424 233.901 48.9944 239.437 43.0851 243.277C43.055 243.344 43.028 243.412 42.9973 243.479C50.2067 239.691 55.7926 233.504 58.7449 226.037C59.5467 223.987 60.1403 221.859 61.0284 219.843C61.7925 218.108 62.7707 216.465 63.4479 214.696C64.2117 212.698 64.5785 210.575 64.5285 208.442C64.4899 206.839 64.2157 205.244 64.2635 203.641C64.3113 202.038 64.728 200.366 65.8606 199.207Z" fill="black"/>
</g>
<path d="M336.017 376.629C335.421 377.297 334.401 377.431 333.478 377.519C332.285 377.68 331.076 377.701 329.877 377.583C328.453 377.386 327.601 378.138 326.3 377.56C325.513 377.21 324.302 377.909 323.515 377.56C322.437 377.081 318.712 376.982 318.056 376.047C317.399 375.112 317.466 373.635 318.504 373.083C318.799 372.954 319.102 372.843 319.414 372.753C321.152 372.111 324.673 367.27 326.522 367.022C327.439 366.982 328.35 367.181 329.152 367.597C330.976 368.348 334.195 368.941 334.991 370.847C335.611 372.332 337.306 375.178 336.017 376.629Z" fill="#2F2E41"/>
<path d="M348.866 377.195C349.455 377.902 350.464 378.044 351.376 378.137C352.555 378.307 353.751 378.33 354.936 378.205C356.343 377.997 358.058 379.198 359.344 378.586C360.121 378.216 361.318 378.409 362.096 378.039C363.162 377.532 368.174 378.663 368.823 377.673C369.472 376.683 369.406 375.119 368.38 374.535C368.089 374.397 367.789 374.281 367.481 374.185C365.763 373.506 360.08 367.285 358.252 367.022C357.346 366.98 356.445 367.191 355.652 367.631C353.85 368.426 350.667 369.054 349.881 371.073C349.268 372.645 347.592 375.658 348.866 377.195Z" fill="#2F2E41"/>
<path d="M354.443 267.035C355.004 268.089 355.494 269.178 355.91 270.295C360.888 283.176 361.305 297.252 361.511 311.021C361.494 313.26 361.624 315.497 361.902 317.72C362.111 319.129 362.44 320.553 362.228 321.962C362.044 323.18 361.458 324.381 361.692 325.591C361.796 326.133 362.062 326.637 362.167 327.179C362.248 327.774 362.231 328.378 362.117 328.968L361.45 333.825C361.07 336.592 360.192 339.257 360.24 342.048C360.273 343.952 360.305 345.859 360.522 347.752C360.742 349.673 361.152 351.58 361.173 353.514C361.189 354.962 360.986 356.402 360.855 357.844C360.67 359.881 360.628 361.928 360.73 363.97C360.808 365.544 360.992 367.178 361.846 368.515C360.89 369.856 359.943 371.057 358.412 371.713C355.302 373.047 351.733 372.595 348.372 372.118C348.558 371.511 348.847 370.823 348.578 370.247C348.42 369.968 348.226 369.71 348.001 369.479C347.267 368.458 346.758 367.3 346.505 366.077C346.098 364.627 345.691 363.066 346.526 361.674C346.814 361.179 346.941 360.609 346.891 360.042C346.195 350.91 344.118 341.463 346.031 332.501C346.235 331.545 346.478 330.594 346.592 329.623C346.695 328.227 346.712 326.826 346.643 325.427L346.603 323.481C346.504 321.403 346.59 319.275 346.164 317.22C345.859 315.749 345.289 314.27 345.991 312.771C346.302 312.074 346.263 311.276 345.887 310.61C344.411 308.08 343.223 305.399 342.346 302.615C342.164 301.837 341.915 301.076 341.601 300.339C341.172 299.563 340.68 298.822 340.129 298.124C338.463 295.762 337.467 293.021 336.489 290.315C336.593 290.067 336.513 289.722 336.241 289.758C335.973 289.825 335.742 289.993 335.6 290.226C334.26 291.987 334.148 294.337 334.088 296.531C333.986 298.569 334.022 300.613 334.194 302.647C334.309 303.712 334.499 304.77 334.597 305.837C334.725 307.828 334.693 309.826 334.5 311.813L333.816 321.588C333.723 322.396 333.773 323.213 333.963 324.005C334.402 325.375 334.616 326.804 334.597 328.24C334.417 334.144 334.939 340.049 336.152 345.836C336.486 347.433 336.872 349.021 337.156 350.628C337.824 354.415 337.915 358.274 338.005 362.116C338.061 364.478 338.1 366.925 337.148 369.097C336.777 369.767 336.504 370.485 336.338 371.229C336.334 371.613 336.282 371.995 336.182 372.366C335.903 373.069 335.065 373.369 334.312 373.529C332.896 373.83 331.443 373.931 329.998 373.829C329.659 373.824 329.325 373.751 329.015 373.616C328.476 373.343 328.19 372.764 327.78 372.326C326.896 371.381 325.426 371.092 324.62 370.083C323.613 368.82 324.036 366.991 324.635 365.501C325.235 364.011 325.977 362.392 325.461 360.873C324.853 359.082 322.697 358.117 322.118 356.317C323.77 349.056 319.713 341.546 320.06 334.115C320.141 332.384 320.449 330.666 320.455 328.933C320.471 324.47 318.494 320.127 318.819 315.675C319.645 304.362 315.706 293.068 314.037 281.844C313.72 280.169 313.602 278.464 313.685 276.762C313.932 273.952 315.266 271.338 316.87 268.994C318.019 267.315 319.401 265.672 321.304 264.886C322.871 264.24 324.628 264.242 326.329 264.255C330.573 264.287 334.817 264.32 339.061 264.394C341.949 264.354 344.834 264.607 347.668 265.148C349.964 265.661 352.112 266.708 354.443 267.035Z" fill="#2F2E41"/>
<path d="M286.503 215.438C286.077 213.412 286.882 211.244 286.253 209.269C286.025 208.556 285.468 207.816 284.701 207.837C283.956 207.857 283.451 208.566 282.791 208.902C281.726 209.443 280.433 208.951 279.368 208.409C278.304 207.866 277.118 207.252 275.964 207.577C275.828 208.28 276.316 208.95 276.847 209.445C277.435 209.877 277.922 210.426 278.276 211.055C278.449 211.735 278.514 212.437 278.471 213.136C278.591 214.741 279.637 216.123 280.682 217.372C282.366 219.384 284.154 221.311 286.039 223.146C286.036 223.143 288.899 219.699 288.844 219.097C288.792 218.53 287.829 217.999 287.479 217.542C286.999 216.918 286.666 216.2 286.503 215.438Z" fill="#A1616A"/>
<path d="M367.846 256.79C368.086 257.425 368.266 258.082 368.384 258.752C369.08 262.185 369.519 265.665 369.951 269.142C370.067 270.07 370.182 271 370.217 271.934C370.34 274.154 369.891 276.367 368.916 278.356C367.924 280.35 366.237 281.897 364.186 282.694C363.554 282.922 362.67 282.964 362.394 282.342C362.296 282.054 362.298 281.741 362.4 281.454C362.65 280.528 363.158 279.697 363.487 278.797C363.976 277.453 364.057 275.991 363.721 274.599C363.591 274.067 363.318 273.473 362.789 273.367C363.053 274.594 362.831 275.878 362.171 276.94C362.02 277.235 361.761 277.459 361.45 277.561C361 277.607 360.579 277.33 360.434 276.894C360.305 276.466 360.277 276.013 360.352 275.572C360.522 273.342 360.855 271.127 361.351 268.948C361.94 266.555 362.874 264.195 362.814 261.729C362.76 259.494 361.885 257.301 362.13 255.079C362.133 254.942 362.177 254.809 362.255 254.697C362.331 254.619 362.425 254.56 362.528 254.525C363.141 254.267 363.772 254.055 364.415 253.89C364.795 253.792 366.093 253.333 366.457 253.539C366.752 253.705 366.843 254.7 366.99 255.037C367.251 255.633 367.599 256.186 367.846 256.79Z" fill="#A1616A"/>
<path d="M323.585 190.849C328.519 190.849 332.519 186.905 332.519 182.04C332.519 177.176 328.519 173.232 323.585 173.232C318.651 173.232 314.652 177.176 314.652 182.04C314.652 186.905 318.651 190.849 323.585 190.849Z" fill="#A1616A"/>
<path d="M332.205 188.51C332.204 189.089 332.251 189.668 332.344 190.24C332.471 190.819 332.65 191.385 332.88 191.932C333.187 192.821 333.619 193.663 334.165 194.431C334.72 195.205 335.551 195.741 336.489 195.931C330.213 198.845 323.514 200.763 316.637 201.615C317.721 200.9 318.622 199.947 319.271 198.829C319.615 198.112 319.849 197.347 319.968 196.562C320.554 193.274 320.256 189.891 319.105 186.752C318.991 186.443 318.88 186.063 319.096 185.813C319.187 185.72 319.299 185.648 319.421 185.603C322.148 184.459 325.093 183.915 328.053 184.008C328.809 184.013 329.565 184.046 330.32 184.1C330.725 184.129 331.622 184.045 331.944 184.339C332.329 184.691 332.136 185.781 332.148 186.257L332.205 188.51Z" fill="#A1616A"/>
<path d="M336.439 195.53C333.658 192.044 328.805 190.861 324.677 192.664C320.303 194.705 318.15 199.608 314.303 202.491C313.429 203.131 312.496 203.693 311.518 204.169C310.941 204.481 310.325 204.719 309.686 204.878C308.967 205.033 308.216 205.012 307.5 205.18C306.136 205.572 304.974 206.454 304.248 207.648C303.888 208.273 303.489 208.876 303.053 209.452C302.651 209.919 302.151 210.296 301.726 210.743C300.197 212.35 299.781 214.658 299.433 216.827C298.236 218.059 296.93 219.185 295.53 220.192C295.09 220.524 294.602 220.788 294.081 220.977C292.735 221.403 291.251 220.86 290.104 220.05C288.957 219.24 288.023 218.173 286.893 217.341C285.853 218.793 284.768 220.25 283.66 221.654C283.493 221.921 283.239 222.125 282.938 222.233C282.73 222.917 283.229 223.626 283.602 224.239L285.605 227.532C286.268 228.73 287.08 229.843 288.024 230.845C288.981 231.853 290.289 232.475 291.69 232.589C292.575 232.581 293.451 232.417 294.276 232.105C298.094 230.849 301.599 228.845 305.231 227.142C305.889 226.774 306.626 226.563 307.383 226.525C308.16 226.505 308.856 226.994 309.083 227.722C309.5 229.779 309.914 231.828 310.486 233.848C311.026 235.754 311.528 237.67 311.991 239.595C312.301 240.773 312.522 241.972 312.653 243.181C312.712 243.868 312.719 244.558 312.725 245.247L312.803 253.577C312.811 254.474 312.288 255.034 311.886 255.84C311.269 257.09 311.176 258.527 311.627 259.843C311.853 260.493 312.206 261.093 312.457 261.734C313.062 263.284 313.039 264.991 313.007 266.65L312.935 270.451C312.917 270.609 312.946 270.768 313.019 270.909C313.256 271.272 313.828 271.059 314.189 270.814L316.007 269.583C318.439 269.91 320.895 270.026 323.348 269.929C330.324 269.831 337.301 270.102 344.26 270.579C346.582 270.737 348.982 270.91 351.177 270.152C352.291 269.768 353.317 269.153 354.456 268.845C354.926 268.774 355.371 268.594 355.757 268.321C356.394 267.745 356.224 266.734 355.965 265.924C355.737 265.216 355.479 264.518 355.19 263.83C354.893 263.198 354.651 262.543 354.466 261.871C354.117 260.354 354.456 258.602 353.491 257.368C351.33 254.604 352.86 250.352 351.953 246.988C351.659 245.9 351.226 244.85 350.951 243.757C350.778 243.071 350.669 242.371 350.56 241.673C350.276 240.162 350.135 238.628 350.139 237.092C350.165 236.323 350.264 235.559 350.363 234.796L351.049 229.497C351.908 231.064 352.504 232.755 352.816 234.506C353.441 237.122 354.21 239.702 355.12 242.236C355.638 243.765 356.155 245.293 356.714 246.807C357.068 247.669 357.341 248.561 357.529 249.471C357.652 250.206 357.656 250.954 357.743 251.694C357.931 253.279 358.498 254.799 359.399 256.13C359.565 256.439 359.841 256.678 360.174 256.803C360.399 256.844 360.63 256.835 360.851 256.776C363.277 256.308 365.624 255.513 367.827 254.416C368.297 254.226 368.704 253.915 369.006 253.516C369.599 252.573 368.936 251.395 368.647 250.325C368.338 249.177 368.41 247.797 367.486 247.028C364.269 244.35 365.866 238.914 364.256 235.094C363.973 234.423 363.643 233.771 363.4 233.086C363.213 232.562 363.078 232.023 362.942 231.485C361.818 227.036 360.615 222.606 359.333 218.197C358.003 213.626 358.145 208.864 356.472 204.402C356.157 203.467 355.746 202.566 355.245 201.711C354.679 200.819 353.922 200.057 353.027 199.477C350.598 197.906 348.146 196.569 345.293 195.999C342.44 195.429 339.351 195.517 336.439 195.53Z" fill="#D0CDE1"/>
<path d="M315.247 184.124C314.006 183.469 314.333 181.691 314.122 180.325C313.688 177.516 310.449 175.849 309.689 173.108C310.562 173.213 311.449 173.09 312.258 172.751C312.415 171.841 312.231 170.906 311.74 170.117C314.404 169.057 316.56 166.975 319.265 166.019C322.667 164.817 326.455 165.555 329.886 166.673C331.598 167.23 333.38 167.954 334.415 169.402C335.552 170.993 335.535 173.087 335.474 175.028C335.378 178.073 335.255 181.227 333.872 183.955C332.111 187.428 327.126 190.645 323.007 189.704C321.294 189.313 320.789 188.259 320.067 186.8C319.618 185.891 319.449 184.837 318.437 184.365C317.448 183.903 316.25 184.654 315.247 184.124Z" fill="#2F2E41"/>
<g opacity="0.1">
<path d="M352.978 248.875C352.99 249.115 352.996 249.357 352.999 249.6C352.987 249.36 352.981 249.118 352.978 248.875Z" fill="black"/>
<path d="M313.189 257.959C313.795 259.519 313.771 261.237 313.74 262.906C313.731 263.342 313.723 263.778 313.715 264.214C313.676 263.314 313.499 262.424 313.189 261.576C312.939 260.931 312.585 260.327 312.359 259.673C311.972 258.53 311.986 257.292 312.4 256.158C312.626 256.772 312.952 257.348 313.189 257.959Z" fill="black"/>
</g>
<g opacity="0.1">
<path d="M312.153 171.243L312.145 171.248C312.069 170.683 311.914 170.141 311.687 169.651C311.828 169.576 311.967 169.496 312.105 169.412C312.214 170.012 312.23 170.635 312.153 171.243Z" fill="black"/>
</g>
<path d="M23.8222 153.658L21.6632 151.716C13.9962 144.698 8.93457 140.142 8.93457 134.468C8.8962 132.287 9.74492 130.183 11.2874 128.636C12.8299 127.088 14.9348 126.229 17.1228 126.254C19.7095 126.268 22.1593 127.415 23.8222 129.391C25.485 127.415 27.9349 126.268 30.5216 126.254C32.7096 126.229 34.8145 127.088 36.357 128.636C37.8995 130.183 38.7482 132.287 38.7099 134.468C38.7099 140.142 33.6481 144.698 25.9812 151.716L23.8222 153.658Z" fill="#FF6584"/>
<path fill-rule="evenodd" clip-rule="evenodd" d="M27.7926 148.764L25.6336 146.822C17.9666 139.804 12.905 135.249 12.905 129.574C12.8666 127.393 13.7153 125.289 15.2578 123.742C16.8003 122.195 18.9052 121.336 21.0932 121.361C23.6799 121.374 26.1297 122.521 27.7926 124.497C29.4554 122.521 31.9053 121.374 34.492 121.361C36.68 121.336 38.7849 122.195 40.3274 123.742C41.8699 125.289 42.7186 127.393 42.6803 129.574C42.6803 135.249 37.6185 139.804 29.9516 146.822L27.7926 148.764Z" stroke="#3F3D56" stroke-width="2"/>
</svg>
